Coordinates
version=1
nRows=17
nColumns=38
inDegrees=yes

Units are S.I. units (second, meters, Newtons, ...)
Angles are in degrees.

endheader
time	pelvis_tilt	pelvis_list	pelvis_rotation	pelvis_tx	pelvis_ty	pelvis_tz	hip_flexion_r	hip_adduction_r	hip_rotation_r	knee_angle_r	ankle_angle_r	subtalar_angle_r	mtp_angle_r	hip_flexion_l	hip_adduction_l	hip_rotation_l	knee_angle_l	ankle_angle_l	subtalar_angle_l	mtp_angle_l	lumbar_extension	lumbar_bending	lumbar_rotation	arm_flex_r	arm_add_r	arm_rot_r	elbow_flex_r	pro_sup_r	wrist_flex_r	wrist_dev_r	arm_flex_l	arm_add_l	arm_rot_l	elbow_flex_l	pro_sup_l	wrist_flex_l	wrist_dev_l
      0.57000000	    -36.74623942	     -1.70352128	     -1.55606017	     -0.43680116	      0.52452293	      0.37922430	    114.58643341	     -6.77682825	      1.38663754	   -107.57616102	     30.54910523	      0.00000000	      0.00000000	    114.78634170	    -10.58686715	      4.92773412	   -108.16944441	     34.40480727	      0.00000000	      0.00000000	    -12.92165959	      2.68708133	      5.99157812	    -28.13385097	    -51.19734926	     49.61923861	     89.65330215	     88.18331712	      0.00000000	      0.00000000	      5.89618968	    -49.28288552	     88.46589004	     95.35986329	     11.05200001	      0.00000000	      0.00000000
      0.57250000	    -36.79210952	     -1.52746875	     -1.40252566	     -0.43602568	      0.52535233	      0.37907151	    114.52587835	     -6.85431213	      1.61882033	   -107.51202476	     30.61189083	      0.00000000	      0.00000000	    114.53602583	    -10.50436800	      4.65189892	   -107.99001722	     34.51873840	      0.00000000	      0.00000000	    -12.69253107	      2.52199249	      5.76889882	    -27.76811728	    -51.21727249	     50.10506153	     89.54133331	     88.17157688	      0.00000000	      0.00000000	      5.85504207	    -49.32528123	     88.43693006	     95.35998954	     11.01892921	      0.00000000	      0.00000000
      0.57500000	    -36.78416922	     -1.46218854	     -1.35269397	     -0.43511013	      0.52649492	      0.37889327	    114.30841274	     -6.88128820	      1.69072319	   -107.37419941	     30.65731942	      0.00000000	      0.00000000	    114.26394444	    -10.45820017	      4.52778351	   -107.81901184	     34.47696525	      0.00000000	      0.00000000	    -12.48012862	      2.47233485	      5.56474342	    -27.07321894	    -51.42111100	     51.08416641	     89.48997290	     88.11634791	      0.00000000	      0.00000000	      5.71974262	    -49.27274323	     88.37393770	     95.29349052	      9.72877481	      0.00000000	      0.00000000
      0.57750000	    -36.80470873	     -1.54220853	     -1.36337324	     -0.43429005	      0.52753845	      0.37884738	    114.08248366	     -6.87648803	      1.59502299	   -107.21262844	     30.66449646	      0.00000000	      0.00000000	    114.08230104	    -10.44724057	      4.57291681	   -107.67179124	     34.51267457	      0.00000000	      0.00000000	    -12.28836675	      2.58043076	      5.60325522	    -26.89409750	    -51.51145756	     51.37407995	     89.46923594	     88.10116971	      0.00000000	      0.00000000	      5.73596091	    -49.22560481	     88.38873597	     95.21656047	      9.95305001	      0.00000000	      0.00000000
      0.58000000	    -36.84377399	     -1.51831033	     -1.36988201	     -0.43344611	      0.52877098	      0.37887132	    113.84392543	     -6.84996182	      1.59863760	   -106.98016081	     30.72324961	      0.00000000	      0.00000000	    113.85253086	    -10.47834614	      4.51035320	   -107.47175361	     34.51517118	      0.00000000	      0.00000000	    -12.04026447	      2.55450032	      5.56987800	    -26.45430368	    -51.58093097	     51.96686342	     89.42229773	     88.08548249	      0.00000000	      0.00000000	      5.72194284	    -49.18348451	     88.41830945	     95.10933564	      9.98540081	      0.00000000	      0.00000000
      0.58250000	    -36.86449116	     -1.73103419	     -1.37990517	     -0.43255968	      0.52996486	      0.37873750	    113.54500251	     -6.90284318	      1.36923510	   -106.77188535	     30.72829238	      0.00000000	      0.00000000	    113.68880377	    -10.41426752	      4.68307827	   -107.31317459	     34.56819985	      0.00000000	      0.00000000	    -11.82443107	      2.83136382	      5.64255651	    -26.33719897	    -51.70467209	     52.20497506	     89.42542983	     88.07796704	      0.00000000	      0.00000000	      5.75355873	    -49.03868813	     88.46926705	     94.94587630	     10.14191114	      0.00000000	      0.00000000
      0.58500000	    -36.92104721	     -1.57551022	     -1.36407219	     -0.43164843	      0.53115831	      0.37872037	    113.41709455	     -6.84807454	      1.51646183	   -106.61991363	     30.68783232	      0.00000000	      0.00000000	    113.42476465	    -10.46570217	      4.47580921	   -107.10521280	     34.60478754	      0.00000000	      0.00000000	    -11.54143628	      2.66627005	      5.63153539	    -26.09818688	    -51.71859994	     52.58850167	     89.36236288	     88.07237858	      0.00000000	      0.00000000	      5.77550986	    -49.02571331	     88.52101906	     94.85896169	     10.27441627	      0.00000000	      0.00000000
      0.58750000	    -37.28946051	     -1.65933952	     -1.04972247	     -0.43078678	      0.53240922	      0.37831387	    113.43798957	     -7.16978442	      1.53003342	   -106.36513495	     30.77577100	      0.00000000	      0.00000000	    113.43769014	    -10.11289808	      4.38435617	   -106.73480251	     34.48651549	      0.00000000	      0.00000000	    -10.82403425	      2.83510794	      5.03238816	    -24.94239306	    -51.96415422	     54.29913516	     89.14689414	     87.70031268	      0.00000000	      0.00000000	      5.16159414	    -48.92750710	     88.28643094	     94.19728764	     16.87668623	      0.00000000	      0.00000000
      0.59000000	    -37.08125722	     -1.92457679	     -1.39409733	     -0.42983309	      0.53380302	      0.37840877	    112.89555869	     -6.91912500	      1.11593834	   -106.11884766	     30.68614772	      0.00000000	      0.00000000	    113.14853026	    -10.36895965	      4.74645130	   -106.71248081	     34.57275662	      0.00000000	      0.00000000	    -10.91834166	      3.13877235	      5.74480795	    -25.79216013	    -51.94963887	     53.19637180	     89.29529168	     88.06629830	      0.00000000	      0.00000000	      5.72874072	    -48.75211009	     88.56980302	     94.63322907	      9.67097146	      0.00000000	      0.00000000
      0.59250000	    -37.19337942	     -1.84530140	     -1.30696628	     -0.42893285	      0.53516052	      0.37845343	    112.76932686	     -6.91768198	      1.21142962	   -105.93505970	     30.67193479	      0.00000000	      0.00000000	    112.91983566	    -10.33678025	      4.58913010	   -106.43222560	     34.56301150	      0.00000000	      0.00000000	    -10.53086005	      3.05373690	      5.57324288	    -25.29475571	    -52.00822197	     53.94367846	     89.20538337	     88.00188482	      0.00000000	      0.00000000	      5.59530502	    -48.74311497	     88.50834418	     94.55792327	      8.85593439	      0.00000000	      0.00000000
      0.59500000	    -37.33402314	     -1.94458991	     -1.27164011	     -0.42801719	      0.53645651	      0.37822306	    112.63670120	     -6.96627733	      1.10821900	   -105.74914237	     30.57846661	      0.00000000	      0.00000000	    112.80020820	    -10.25160308	      4.63535959	   -106.20247461	     34.55448032	      0.00000000	      0.00000000	    -10.13568512	      3.21466805	      5.63651663	    -25.42895466	    -52.01423998	     53.89544784	     89.17141777	     88.01377821	      0.00000000	      0.00000000	      5.61358739	    -48.62546684	     88.57854523	     94.38866298	      9.24390548	      0.00000000	      0.00000000
      0.59750000	    -37.53082825	     -1.82450433	     -1.25336726	     -0.42708824	      0.53784584	      0.37824596	    112.53706971	     -6.91859785	      1.21882780	   -105.46532519	     30.57497880	      0.00000000	      0.00000000	    112.63907106	    -10.28616364	      4.45590705	   -105.90993047	     34.51610274	      0.00000000	      0.00000000	     -9.62185352	      3.08917467	      5.54439483	    -25.06657632	    -52.02787781	     54.44302066	     89.08403303	     87.96918501	      0.00000000	      0.00000000	      5.46633759	    -48.59955763	     88.53650134	     94.29800963	      8.25273361	      0.00000000	      0.00000000
      0.60000000	    -37.72896380	     -1.79532167	     -1.15308255	     -0.42609770	      0.53910214	      0.37800389	    112.46060906	     -6.99549986	      1.26926592	   -105.24541311	     30.58865573	      0.00000000	      0.00000000	    112.51822371	    -10.18475376	      4.34167168	   -105.65093547	     34.46470839	      0.00000000	      0.00000000	     -9.11583264	      3.10670290	      5.58380694	    -25.30376822	    -51.95711414	     54.36006623	     88.99595450	     87.99492006	      0.00000000	      0.00000000	      5.50449571	    -48.52147343	     88.62946641	     94.09282539	      9.16510694	      0.00000000	      0.00000000
      0.60250000	    -37.84013516	     -1.81118541	     -1.13923953	     -0.42527080	      0.54075289	      0.37786102	    112.22630736	     -6.96892987	      1.25587442	   -104.92709837	     30.57688458	      0.00000000	      0.00000000	    112.28575403	    -10.15675919	      4.29501919	   -105.34457203	     34.44081152	      0.00000000	      0.00000000	     -8.74567033	      3.16329614	      5.62028118	    -25.28108704	    -52.00628742	     54.47003029	     89.02060524	     87.99929154	      0.00000000	      0.00000000	      5.49374792	    -48.46012118	     88.62414172	     94.04883786	      9.11321247	      0.00000000	      0.00000000
      0.60500000	    -37.85125574	     -1.81125464	     -1.12198050	     -0.42402249	      0.54196701	      0.37787869	    112.00384403	     -6.97351815	      1.23028888	   -104.81392581	     30.54981623	      0.00000000	      0.00000000	    112.06275754	    -10.16994177	      4.27295220	   -105.22060377	     34.41363269	      0.00000000	      0.00000000	     -8.39033904	      3.17617073	      5.64021985	    -25.36016718	    -52.01557212	     54.54719804	     89.03650688	     88.00236977	      0.00000000	      0.00000000	      5.41044878	    -48.47168447	     88.66919433	     94.04672965	      9.09483952	      0.00000000	      0.00000000
      0.60750000	    -38.02690925	     -1.82808203	     -1.11678056	     -0.42319337	      0.54414401	      0.37747590	    111.73621333	     -7.00520403	      1.19079790	   -104.34618081	     30.50327609	      0.00000000	      0.00000000	    111.79530369	    -10.12408507	      4.17033434	   -104.74456921	     34.37694679	      0.00000000	      0.00000000	     -7.95152309	      3.27015449	      5.68493533	    -25.22169792	    -52.09406405	     54.75162201	     88.97516147	     87.99818845	      0.00000000	      0.00000000	      5.47824180	    -48.30845857	     88.70161716	     93.88264626	      9.01776725	      0.00000000	      0.00000000
      0.61000000	    -38.43258229	     -2.07436320	     -0.96321733	     -0.42198679	      0.54606377	      0.37732442	    111.63560657	     -7.19074973	      0.94860661	   -103.95293830	     30.37918256	      0.00000000	      0.00000000	    111.81564964	     -9.89708453	      4.32136226	   -104.32046634	     34.25214052	      0.00000000	      0.00000000	     -7.06579151	      3.57533945	      5.29210985	    -24.03378261	    -52.28992020	     56.53259235	     88.61189718	     87.94107111	      0.00000000	      0.00000000	      5.14211749	    -48.08865020	     88.71430252	     93.44543096	      8.49629111	      0.00000000	      0.00000000
